<svg width="6" height="11" viewBox="0 0 6 11" fill="none" xmlns="http://www.w3.org/2000/svg">
<path fill-rule="evenodd" clip-rule="evenodd" d="M0.288777 6.16942C0.307758 6.19101 0.333731 6.19856 0.35471 6.21691L4.30671 10.486C4.69432 10.9047 5.32269 10.9047 5.70929 10.486C6.0969 10.0683 6.0969 9.38957 5.70929 8.97086L2.40464 5.4L5.70929 1.82914C6.0969 1.41043 6.0969 0.731655 5.70929 0.314029C5.32269 -0.104676 4.69432 -0.104676 4.30671 0.314029L0.35471 4.58309C0.333731 4.60144 0.307758 4.60899 0.288777 4.63058C0.0919762 4.84209 -0.00292826 5.12158 6.86646e-05 5.4C-0.00292826 5.67842 0.0919762 5.95791 0.288777 6.16942Z" fill="white"/>
</svg>
