<svg width="6" height="11" viewBox="0 0 6 11" fill="none" xmlns="http://www.w3.org/2000/svg">
<path fill-rule="evenodd" clip-rule="evenodd" d="M5.71122 6.16942C5.69224 6.19101 5.66627 6.19856 5.64529 6.21691L1.69329 10.486C1.30568 10.9047 0.677315 10.9047 0.290706 10.486C-0.096902 10.0683 -0.096902 9.38957 0.290706 8.97086L3.59536 5.4L0.290706 1.82914C-0.096902 1.41043 -0.096902 0.731655 0.290706 0.314029C0.677315 -0.104676 1.30568 -0.104676 1.69329 0.314029L5.64529 4.58309C5.66627 4.60144 5.69224 4.60899 5.71122 4.63058C5.90802 4.84209 6.00293 5.12158 5.99993 5.4C6.00293 5.67842 5.90802 5.95791 5.71122 6.16942Z" fill="white"/>
</svg>
